<?xml version="1.0" encoding="utf-8"?>
<!-- Generator: Adobe Illustrator 19.0.0, SVG Export Plug-In . SVG Version: 6.00 Build 0)  -->
<svg version="1.1" id="Layer_1" xmlns="http://www.w3.org/2000/svg" xmlns:xlink="http://www.w3.org/1999/xlink" x="0px" y="0px"
	 viewBox="0 0 92.7 93.3" style="enable-background:new 0 0 92.7 93.3;" xml:space="preserve">
<style type="text/css">
	.st0{fill:#FC6C58;}
	.st1{fill:#EEEEEE;}
	.st2{clip-path:url(#SVGID_2_);}
	.st3{fill:#22B2F2;}
	.st4{fill:#354355;}
	.st5{fill:#344255;}
	.st6{fill:#F4DF21;}
</style>
<g id="XMLID_168_">
	<g id="XMLID_171_">
		<path class="st0" d="M46.3,90.7C22,90.7,2.3,71,2.3,46.7S22,2.6,46.3,2.6s44.1,19.8,44.1,44.1S70.6,90.7,46.3,90.7z"/>
	</g>
	<g id="XMLID_161_">
		<path class="st1" d="M46.3,3.6c23.8,0,43.1,19.3,43.1,43.1c0,23.8-19.3,43.1-43.1,43.1c-23.8,0-43.1-19.3-43.1-43.1
			C3.3,22.9,22.5,3.6,46.3,3.6 M46.3,1.6C21.5,1.6,1.3,21.8,1.3,46.7c0,24.8,20.2,45.1,45.1,45.1c24.8,0,45.1-20.2,45.1-45.1
			C91.4,21.8,71.2,1.6,46.3,1.6L46.3,1.6z"/>
	</g>
</g>
<g id="XMLID_133_">
	<defs>
		<circle id="SVGID_1_" cx="46.3" cy="46.7" r="43.1"/>
	</defs>
	<clipPath id="SVGID_2_">
		<use xlink:href="#SVGID_1_"  style="overflow:visible;"/>
	</clipPath>
	<g id="XMLID_135_" class="st2">
		<g id="XMLID_167_">
			<rect id="XMLID_223_" x="19" y="37.2" class="st3" width="54.8" height="58"/>
			<path id="XMLID_224_" class="st4" d="M74.8,96.2H18v-60h56.8V96.2z M20,94.2h52.8v-56H20V94.2z"/>
		</g>
		<g id="XMLID_166_">
			<rect id="XMLID_219_" x="15.3" y="32.8" class="st1" width="62.3" height="8.9"/>
			<path id="XMLID_220_" class="st4" d="M77.5,42.7H15.3c-0.6,0-1-0.4-1-1v-8.9c0-0.6,0.4-1,1-1h62.3c0.6,0,1,0.4,1,1v8.9
				C78.5,42.2,78.1,42.7,77.5,42.7z M16.3,40.7h60.3v-6.9H16.3V40.7z"/>
		</g>
		<g id="XMLID_165_">
			<path id="XMLID_215_" class="st1" d="M36.2,52.4l-0.4-0.1c-1.1-0.3-2.1-1-2.7-2.1l-8.8-15.3c-0.8-1.3-0.8-3,0-4.4l8.9-15.3
				c0.8-1.3,2.2-2.2,3.8-2.2h17.7c1.5,0,3,0.8,3.8,2.2l8.9,15.3c0.8,1.4,0.8,3.1,0,4.4l-8.8,15.3c-0.6,1-1.6,1.8-2.7,2.1l-0.4,0.1
				H36.2z"/>
			<path id="XMLID_216_" class="st4" d="M55.3,53.4H36.2c-0.1,0-0.2,0-0.2,0l-0.4-0.1c-1.4-0.4-2.6-1.3-3.3-2.5l-8.8-15.3
				c-1-1.6-1-3.7,0-5.4l8.9-15.3c1-1.7,2.7-2.7,4.7-2.7h17.7c1.9,0,3.7,1,4.6,2.7L68.1,30c1,1.7,0.9,3.8,0,5.4l-8.8,15.3
				c-0.7,1.2-1.9,2.2-3.3,2.5l-0.4,0.1C55.5,53.3,55.4,53.4,55.3,53.4z M36.3,51.4h18.9l0.2-0.1c0.9-0.2,1.6-0.8,2.1-1.6l8.8-15.3
				c0.6-1,0.6-2.3,0-3.4l-8.9-15.3c-0.6-1-1.7-1.7-2.9-1.7H36.9c-1.2,0-2.3,0.6-2.9,1.7L25.1,31c-0.6,1.1-0.6,2.3,0,3.4L34,49.7
				c0.5,0.8,1.2,1.4,2.1,1.6L36.3,51.4z"/>
		</g>
		<g id="XMLID_131_">
			<path id="XMLID_214_" class="st5" d="M64.6,32l-8.9-15.3c-0.2-0.4-0.7-0.7-1.2-0.7H36.9c-0.5,0-0.9,0.3-1.2,0.7L26.8,32
				c-0.2,0.4-0.2,1,0,1.4l8.9,15.3c0.2,0.3,0.5,0.6,0.9,0.6c0,0,0,0,0,0h18.4c0,0,0,0,0,0c0.4-0.1,0.7-0.3,0.9-0.6l8.9-15.3
				C64.9,32.9,64.9,32.4,64.6,32z M56.1,39.8c0,0.2-0.1,0.4-0.4,0.5c-0.5,0.2-0.9,0.3-1.2,0.3c-0.3,0.1-0.7,0.1-1.1,0.1
				c-0.8,0-1.5-0.1-2.3-0.4c-0.7-0.3-1.4-0.7-2-1.2c-0.6-0.6-1.1-1.2-1.4-1.9c-0.3-0.7-0.4-1.4-0.4-2.2l-0.4-3.4l0,0l0-0.4
				c0-0.3-0.1-0.7-0.3-0.7c-0.2,0-0.3,0.4-0.5,0.7l-1.8,4.2c-0.1,0.2-0.2,0.3-0.4,0.3H43c-0.2,0-0.3-0.1-0.4-0.3l-1.8-4.4l0,0
				c-0.1-0.2-0.2-0.5-0.4-0.5c-0.2,0-0.3,0.4-0.3,0.7l-0.1,0.4l0,0l-1.3,8.8c0,0.2-0.2,0.4-0.4,0.4h-2.5c-0.1,0-0.2-0.1-0.3-0.1
				c-0.1-0.1-0.1-0.2-0.1-0.3l2.6-15.9c0-0.2,0.2-0.3,0.4-0.3h2.5c0.2,0,0.3,0.1,0.4,0.3l1.9,5c0,0.1,0.2,0.1,0.2,0l2-5
				c0.1-0.2,0.2-0.3,0.4-0.3h2.6c0.2,0,0.4,0.1,0.4,0.4l0.8,5.5l0.8,5.2v0v0l0,0h0c0.1,0.7,0.3,1.2,0.8,1.6c0.5,0.5,1.2,0.8,2,0.8
				c0.4,0,0.9-0.1,1.3-0.3c0.2-0.1,0.4-0.2,0.6-0.3c0.1-0.1,0.2-0.1,0.3-0.1c0.1,0,0.2,0,0.2,0c0.2,0.1,0.3,0.3,0.3,0.4L56.1,39.8
				L56.1,39.8z M56.1,32.1c0,0.2-0.1,0.4-0.3,0.4c-0.1,0-0.1,0-0.2,0c-0.1,0-0.2,0-0.3-0.1c-0.2-0.1-0.3-0.2-0.5-0.3
				c-0.4-0.2-0.9-0.3-1.4-0.3c-0.4,0-0.8,0.1-1.1,0.2c-0.3,0.1-0.6,0.4-0.9,0.6c-0.1,0.1-0.1,0.2-0.2,0.2c0,0,0,0,0,0l-0.5-3.5
				c0,0,0,0,0,0c0.1-0.1,0.2-0.1,0.3-0.2l0,0c0.8-0.3,1.5-0.5,2.3-0.5c0.8,0,1.6,0.2,2.5,0.5c0.2,0.1,0.3,0.3,0.3,0.5L56.1,32.1z"/>
		</g>
		<g id="XMLID_156_">
			<g id="XMLID_160_">
				<rect id="XMLID_210_" x="26" y="56.5" class="st6" width="14" height="14"/>
				<path id="XMLID_211_" class="st4" d="M40,71.5H26c-0.6,0-1-0.4-1-1v-14c0-0.6,0.4-1,1-1h14c0.6,0,1,0.4,1,1v14
					C41,71,40.6,71.5,40,71.5z M27,69.5h12v-12H27V69.5z"/>
			</g>
			<g id="XMLID_159_">
				<rect id="XMLID_206_" x="23.8" y="70.1" class="st1" width="18.4" height="4.8"/>
				<path id="XMLID_207_" class="st4" d="M42.2,75.8H23.8c-0.6,0-1-0.4-1-1v-4.8c0-0.6,0.4-1,1-1h18.4c0.6,0,1,0.4,1,1v4.8
					C43.2,75.4,42.7,75.8,42.2,75.8z M24.8,73.8h16.4v-2.8H24.8V73.8z"/>
			</g>
			<g id="XMLID_158_">
				<line id="XMLID_204_" class="st6" x1="28.9" y1="62.5" x2="31.4" y2="60"/>
				<path id="XMLID_205_" class="st1" d="M28.9,63.5c-0.3,0-0.5-0.1-0.7-0.3c-0.4-0.4-0.4-1,0-1.4l2.5-2.5c0.4-0.4,1-0.4,1.4,0
					s0.4,1,0,1.4l-2.5,2.5C29.4,63.4,29.2,63.5,28.9,63.5z"/>
			</g>
			<g id="XMLID_157_">
				<line id="XMLID_202_" class="st6" x1="31.4" y1="66.4" x2="36.8" y2="61"/>
				<path id="XMLID_203_" class="st1" d="M31.4,67.4c-0.3,0-0.5-0.1-0.7-0.3c-0.4-0.4-0.4-1,0-1.4l5.4-5.4c0.4-0.4,1-0.4,1.4,0
					s0.4,1,0,1.4l-5.4,5.4C31.9,67.3,31.7,67.4,31.4,67.4z"/>
			</g>
		</g>
		<g id="XMLID_151_">
			<g id="XMLID_155_">
				<rect id="XMLID_198_" x="53" y="56.5" class="st6" width="14" height="14"/>
				<path id="XMLID_199_" class="st4" d="M67,71.5H53c-0.6,0-1-0.4-1-1v-14c0-0.6,0.4-1,1-1h14c0.6,0,1,0.4,1,1v14
					C68,71,67.6,71.5,67,71.5z M54,69.5h12v-12H54V69.5z"/>
			</g>
			<g id="XMLID_154_">
				<rect id="XMLID_194_" x="50.8" y="70.1" class="st1" width="18.4" height="4.8"/>
				<path id="XMLID_195_" class="st4" d="M69.2,75.8H50.8c-0.6,0-1-0.4-1-1v-4.8c0-0.6,0.4-1,1-1h18.4c0.6,0,1,0.4,1,1v4.8
					C70.2,75.4,69.7,75.8,69.2,75.8z M51.8,73.8h16.4v-2.8H51.8V73.8z"/>
			</g>
			<g id="XMLID_153_">
				<line id="XMLID_192_" class="st6" x1="55.9" y1="62.5" x2="58.4" y2="60"/>
				<path id="XMLID_193_" class="st1" d="M55.9,63.5c-0.3,0-0.5-0.1-0.7-0.3c-0.4-0.4-0.4-1,0-1.4l2.5-2.5c0.4-0.4,1-0.4,1.4,0
					s0.4,1,0,1.4l-2.5,2.5C56.4,63.4,56.2,63.5,55.9,63.5z"/>
			</g>
			<g id="XMLID_152_">
				<line id="XMLID_190_" class="st6" x1="58.4" y1="66.4" x2="63.8" y2="61"/>
				<path id="XMLID_191_" class="st1" d="M58.4,67.4c-0.3,0-0.5-0.1-0.7-0.3c-0.4-0.4-0.4-1,0-1.4l5.4-5.4c0.4-0.4,1-0.4,1.4,0
					s0.4,1,0,1.4l-5.4,5.4C58.9,67.3,58.7,67.4,58.4,67.4z"/>
			</g>
		</g>
		<g id="XMLID_142_">
			<g id="XMLID_150_">
				<rect id="XMLID_186_" x="26" y="81.6" class="st6" width="14" height="14"/>
				<path id="XMLID_187_" class="st4" d="M40,96.6H26c-0.6,0-1-0.4-1-1v-14c0-0.6,0.4-1,1-1h14c0.6,0,1,0.4,1,1v14
					C41,96.2,40.6,96.6,40,96.6z M27,94.6h12v-12H27V94.6z"/>
			</g>
			<g id="XMLID_149_">
				<rect id="XMLID_182_" x="23.8" y="95.3" class="st1" width="18.4" height="4.8"/>
				<path id="XMLID_183_" class="st4" d="M42.2,101H23.8c-0.6,0-1-0.4-1-1v-4.8c0-0.6,0.4-1,1-1h18.4c0.6,0,1,0.4,1,1v4.8
					C43.2,100.6,42.7,101,42.2,101z M24.8,99h16.4v-2.8H24.8V99z"/>
			</g>
			<g id="XMLID_148_">
				<line id="XMLID_180_" class="st6" x1="28.9" y1="87.6" x2="31.4" y2="85.2"/>
				<path id="XMLID_181_" class="st1" d="M28.9,88.6c-0.3,0-0.5-0.1-0.7-0.3c-0.4-0.4-0.4-1,0-1.4l2.5-2.5c0.4-0.4,1-0.4,1.4,0
					s0.4,1,0,1.4l-2.5,2.5C29.4,88.5,29.2,88.6,28.9,88.6z"/>
			</g>
			<g id="XMLID_147_">
				<line id="XMLID_178_" class="st6" x1="31.4" y1="91.5" x2="36.8" y2="86.2"/>
				<path id="XMLID_179_" class="st1" d="M31.4,92.6c-0.3,0-0.5-0.1-0.7-0.3c-0.4-0.4-0.4-1,0-1.4l5.4-5.4c0.4-0.4,1-0.4,1.4,0
					s0.4,1,0,1.4l-5.4,5.4C31.9,92.5,31.7,92.6,31.4,92.6z"/>
			</g>
		</g>
		<g id="XMLID_136_">
			<g id="XMLID_141_">
				<rect id="XMLID_174_" x="53" y="81.6" class="st6" width="14" height="14"/>
				<path id="XMLID_175_" class="st4" d="M67,96.6H53c-0.6,0-1-0.4-1-1v-14c0-0.6,0.4-1,1-1h14c0.6,0,1,0.4,1,1v14
					C68,96.2,67.6,96.6,67,96.6z M54,94.6h12v-12H54V94.6z"/>
			</g>
			<g id="XMLID_140_">
				<rect id="XMLID_145_" x="50.8" y="95.3" class="st1" width="18.4" height="4.8"/>
				<path id="XMLID_146_" class="st4" d="M69.2,101H50.8c-0.6,0-1-0.4-1-1v-4.8c0-0.6,0.4-1,1-1h18.4c0.6,0,1,0.4,1,1v4.8
					C70.2,100.6,69.7,101,69.2,101z M51.8,99h16.4v-2.8H51.8V99z"/>
			</g>
			<g id="XMLID_138_">
				<line id="XMLID_143_" class="st6" x1="55.9" y1="87.6" x2="58.4" y2="85.2"/>
				<path id="XMLID_144_" class="st1" d="M55.9,88.6c-0.3,0-0.5-0.1-0.7-0.3c-0.4-0.4-0.4-1,0-1.4l2.5-2.5c0.4-0.4,1-0.4,1.4,0
					s0.4,1,0,1.4l-2.5,2.5C56.4,88.5,56.2,88.6,55.9,88.6z"/>
			</g>
			<g id="XMLID_137_">
				<line id="XMLID_132_" class="st6" x1="58.4" y1="91.5" x2="63.8" y2="86.2"/>
				<path id="XMLID_139_" class="st1" d="M58.4,92.6c-0.3,0-0.5-0.1-0.7-0.3c-0.4-0.4-0.4-1,0-1.4l5.4-5.4c0.4-0.4,1-0.4,1.4,0
					s0.4,1,0,1.4l-5.4,5.4C58.9,92.5,58.7,92.6,58.4,92.6z"/>
			</g>
		</g>
	</g>
</g>
</svg>
