<?xml version="1.0" encoding="utf-8"?>
<!-- Generator: Adobe Illustrator 21.1.0, SVG Export Plug-In . SVG Version: 6.00 Build 0)  -->
<svg version="1.1" id="Layer_1" xmlns="http://www.w3.org/2000/svg" xmlns:xlink="http://www.w3.org/1999/xlink" x="0px" y="0px"
	 viewBox="0 0 92.7 93.3" style="enable-background:new 0 0 92.7 93.3;" xml:space="preserve">
<style type="text/css">
	.st0{fill:#FC6C58;}
	.st1{fill:#EEEEEE;}
	.st2{fill:#22B2F2;stroke:#354355;stroke-width:2;stroke-miterlimit:10;}
	.st3{fill:#EEEEEE;stroke:#354355;stroke-width:2;stroke-miterlimit:10;}
	.st4{fill:#FC6C58;stroke:#354355;stroke-width:2;stroke-miterlimit:10;}
</style>
<g id="XMLID_150_">
	<g id="XMLID_154_">
		<path class="st0" d="M46.3,90.7c-24.3,0-44-19.7-44-44S22,2.6,46.3,2.6s44.1,19.8,44.1,44.1C90.4,71,70.6,90.7,46.3,90.7z"/>
	</g>
	<g id="XMLID_151_">
		<path class="st1" d="M46.3,3.6c23.8,0,43.1,19.3,43.1,43.1S70.1,89.8,46.3,89.8S3.2,70.5,3.2,46.7C3.3,22.9,22.5,3.6,46.3,3.6
			 M46.3,1.6c-24.8,0-45,20.2-45,45.1c0,24.8,20.2,45.1,45.1,45.1c24.8,0,45.1-20.2,45.1-45.1C91.4,21.8,71.2,1.6,46.3,1.6L46.3,1.6
			z"/>
	</g>
</g>
<g>
	<path class="st2" d="M76.7,36.7c-1.2-2-2.8-3.6-4.6-4.9C68.4,29.3,60,25,46.5,25c-13.5,0-21.9,4.3-25.7,6.8
		c-1.8,1.2-3.4,2.8-4.6,4.9c-1.4,2.4-3.5,8.4,5.2,8.9c6.4,0.4,7.5-1.8,8-4.8c0.2-1.4-0.2-2.5-0.7-3.3c-0.6-0.9-0.3-2.3,0.6-2.8
		c7.3-4.1,16.7-4.1,17.2-4.1c0.5,0,10,0,17.2,4.1c0.9,0.5,1.2,1.9,0.6,2.8c-0.5,0.8-0.9,1.9-0.7,3.3c0.5,3,1.6,5.2,8,4.8
		C80.2,45.1,78.1,39.1,76.7,36.7z"/>
	<path class="st2" d="M69.1,53.1l-9.6-17.1c-0.9-1.5-2.3-2.5-3.9-2.5h-0.8V31c0-0.5-0.4-1-1-1h-3.2c-0.5,0-1,0.4-1,1v1.4
		c0,0.7-0.5,1.2-1.2,1.2h-4c-0.7,0-1.2-0.5-1.2-1.2V31c0-0.5-0.4-1-1-1h-3.2c-0.5,0-1,0.4-1,1v2.6h-0.8c-1.6,0-3,0.9-3.9,2.5
		l-9.6,17.1c-0.5,0.9-0.8,2-0.8,3.1v1.6c0,3,2,5.5,4.6,5.5v2c0,0.6,0.5,1,1,1h2.6c0.6,0,1-0.5,1-1v-2h28.6v2c0,0.6,0.5,1,1,1h2.6
		c0.6,0,1-0.5,1-1v-2c2.5-0.1,4.5-2.6,4.5-5.5v-1.6C69.9,55.1,69.6,54,69.1,53.1z"/>
	<circle class="st3" cx="46.3" cy="47.6" r="7.7"/>
</g>
<circle class="st4" cx="46.3" cy="44" r="1.7"/>
</svg>
