<?xml version="1.0" encoding="utf-8"?>
<!-- Generator: Adobe Illustrator 19.0.0, SVG Export Plug-In . SVG Version: 6.00 Build 0)  -->
<svg version="1.1" id="Layer_1" xmlns="http://www.w3.org/2000/svg" xmlns:xlink="http://www.w3.org/1999/xlink" x="0px" y="0px"
	 viewBox="0 0 92.7 93.3" style="enable-background:new 0 0 92.7 93.3;" xml:space="preserve">
<style type="text/css">
	.st0{fill:#FC6C58;}
	.st1{fill:#EEEEEE;}
	.st2{fill:#F4DF21;}
	.st3{fill:#354355;}
	.st4{fill:#22B2F2;}
</style>
<g id="XMLID_150_">
	<g id="XMLID_154_">
		<path class="st0" d="M46.3,90.7C22,90.7,2.3,71,2.3,46.7C2.3,22.4,22,2.6,46.3,2.6s44.1,19.8,44.1,44.1
			C90.4,71,70.6,90.7,46.3,90.7z"/>
	</g>
	<g id="XMLID_151_">
		<path class="st1" d="M46.3,3.6c23.8,0,43.1,19.3,43.1,43.1c0,23.8-19.3,43.1-43.1,43.1c-23.8,0-43.1-19.3-43.1-43.1
			C3.3,22.9,22.5,3.6,46.3,3.6 M46.3,1.6C21.5,1.6,1.3,21.8,1.3,46.7c0,24.8,20.2,45.1,45.1,45.1c24.8,0,45.1-20.2,45.1-45.1
			C91.4,21.8,71.2,1.6,46.3,1.6L46.3,1.6z"/>
	</g>
</g>
<g id="XMLID_132_">
	<g id="XMLID_137_">
		<g id="XMLID_149_">
			<path id="XMLID_165_" class="st2" d="M74.7,41.7L44.9,71.5c-1.5,1.5-3.9,1.5-5.4,0L20.8,52.9c-1.5-1.5-1.5-3.9,0-5.4l29.8-29.8
				c1.5-1.5,3.9-1.5,5.4,0l18.6,18.6C76.2,37.8,76.2,40.2,74.7,41.7z"/>
			<path id="XMLID_166_" class="st3" d="M42.1,73.6c-1.3,0-2.5-0.5-3.4-1.4L20.1,53.6c-0.9-0.9-1.4-2.1-1.4-3.4s0.5-2.5,1.4-3.4
				l29.8-29.8c0.9-0.9,2.1-1.4,3.4-1.4s2.5,0.5,3.4,1.4l18.6,18.6c0.9,0.9,1.4,2.1,1.4,3.4c0,1.3-0.5,2.5-1.4,3.4L45.6,72.2
				C44.6,73.1,43.4,73.6,42.1,73.6z M53.3,17.5c-0.8,0-1.5,0.3-2,0.8L21.5,48.2c-0.5,0.5-0.8,1.3-0.8,2s0.3,1.5,0.8,2l18.6,18.6
				c1.1,1.1,2.9,1.1,4,0L74,41c0.5-0.5,0.8-1.3,0.8-2s-0.3-1.5-0.8-2L55.3,18.4C54.8,17.8,54.1,17.5,53.3,17.5z"/>
		</g>
		<g id="XMLID_148_">
			<path id="XMLID_161_" class="st2" d="M21.7,49.4l26.7-3.2c0.5-0.1,0.9-0.5,1-1l3.5-27c0.1-1.1-1.1-1.7-1.9-0.9L20.8,47.5
				C20.1,48.2,20.7,49.5,21.7,49.4z"/>
			<path id="XMLID_162_" class="st3" d="M21.6,50.4c-0.8,0-1.5-0.5-1.9-1.2c-0.4-0.8-0.2-1.8,0.4-2.4l30.2-30.2
				c0.7-0.7,1.6-0.8,2.4-0.4c0.8,0.4,1.3,1.3,1.2,2.2l-3.5,27c-0.1,1-0.9,1.7-1.9,1.8l-26.7,3.2C21.8,50.4,21.7,50.4,21.6,50.4z
				 M51.8,17.9C51.7,17.9,51.7,18,51.8,17.9L21.5,48.2c0,0-0.1,0.1,0,0.1s0.1,0.1,0.1,0.1l0,0l26.7-3.2c0.1,0,0.1-0.1,0.1-0.1
				l3.5-27C51.9,18,51.9,18,51.8,17.9C51.8,17.9,51.8,17.9,51.8,17.9z"/>
		</g>
		<g id="XMLID_147_">
			<circle id="XMLID_157_" class="st4" cx="47.7" cy="44.6" r="9.4"/>
			<path id="XMLID_158_" class="st3" d="M47.7,55c-2.7,0-5.3-1-7.4-3c-4.1-4.1-4.1-10.7,0-14.7s10.7-4.1,14.7,0l0,0
				c4.1,4.1,4.1,10.7,0,14.7C53.1,54,50.4,55,47.7,55z M47.7,36.2c-2.2,0-4.3,0.8-5.9,2.5c-3.3,3.3-3.3,8.6,0,11.9
				c3.3,3.3,8.6,3.3,11.9,0c3.3-3.3,3.3-8.6,0-11.9l0,0C52,37,49.9,36.2,47.7,36.2z"/>
		</g>
		<g id="XMLID_139_">
			<g id="XMLID_140_">
				<path class="st3" d="M45.4,44.5c0,0.2-0.1,0.3-0.2,0.4c-0.3,0.3-0.7,0.3-0.9,0c-0.1-0.1-0.2-0.3-0.2-0.5c0-0.6,0.2-1.5,1.1-2.4
					c1.3-1.3,2.7-1.4,3.8-0.3l1.6,1.6c0.3,0.3,0.8,0.3,1.1,0c0.6-0.6,0.6-1.5-0.6-2.6c-2.2-2.2-4.8-1.9-6.9,0.2
					c-2.2,2.2-2.5,4.7,0,7.2c2.5,2.5,5.2,2.3,7.3,0.2c0.9-0.9,1.8-2.1,2.1-3.3c0-0.1,0.1-0.3,0.2-0.4c0.3-0.3,0.8-0.3,1.1,0
					c0.2,0.2,0.3,0.5,0.2,0.8c-0.4,1.4-1.2,2.7-2.5,4c-3,3-6.5,3.1-9.6-0.1c-3.1-3.1-2.9-6.5,0.1-9.5c2.8-2.8,6.3-3.2,9.2-0.3
					c1.1,1.1,2.2,3.2,0.4,5c-0.9,0.9-1.7,0.7-2.1,0.6c0.1,0.8-0.1,1.6-0.8,2.3c-1,1-2.3,1-3.2,0.1c-0.9-0.9-0.7-2.2,0.2-3.1l1.4-1.4
					l-0.2-0.2c-0.5-0.5-1.1-0.4-1.7,0.1C45.7,43.5,45.5,44,45.4,44.5z M49.1,44.2l-0.3-0.3l-1.2,1.2c-0.4,0.4-0.5,0.9-0.1,1.3
					c0.4,0.4,0.9,0.3,1.5-0.2C49.5,45.6,49.7,44.8,49.1,44.2z"/>
			</g>
		</g>
	</g>
	<g id="XMLID_136_">
		<line id="XMLID_155_" class="st2" x1="42.3" y1="72.6" x2="34.7" y2="80.2"/>
		<path id="XMLID_156_" class="st3" d="M34.7,81.2c-0.3,0-0.5-0.1-0.7-0.3c-0.4-0.4-0.4-1,0-1.4l7.5-7.5c0.4-0.4,1-0.4,1.4,0
			s0.4,1,0,1.4l-7.5,7.5C35.2,81.1,35,81.2,34.7,81.2z"/>
	</g>
	<g id="XMLID_135_">
		<line id="XMLID_144_" class="st2" x1="31.9" y1="58" x2="25.3" y2="64.7"/>
		<path id="XMLID_145_" class="st3" d="M25.3,65.7c-0.3,0-0.5-0.1-0.7-0.3c-0.4-0.4-0.4-1,0-1.4l6.7-6.7c0.4-0.4,1-0.4,1.4,0
			s0.4,1,0,1.4L26,65.4C25.8,65.6,25.5,65.7,25.3,65.7z"/>
	</g>
	<g id="XMLID_134_">
		<line id="XMLID_142_" class="st2" x1="31.9" y1="70.7" x2="29.3" y2="73.3"/>
		<path id="XMLID_143_" class="st3" d="M29.3,74.3c-0.3,0-0.5-0.1-0.7-0.3c-0.4-0.4-0.4-1,0-1.4l2.6-2.6c0.4-0.4,1-0.4,1.4,0
			s0.4,1,0,1.4L30,74C29.8,74.2,29.6,74.3,29.3,74.3z"/>
	</g>
	<g id="XMLID_133_">
		<line id="XMLID_131_" class="st2" x1="70" y1="35.2" x2="63.6" y2="41.6"/>
		<path id="XMLID_138_" class="st3" d="M63.6,42.6c-0.3,0-0.5-0.1-0.7-0.3c-0.4-0.4-0.4-1,0-1.4l6.4-6.4c0.4-0.4,1-0.4,1.4,0
			s0.4,1,0,1.4l-6.4,6.4C64.1,42.5,63.9,42.6,63.6,42.6z"/>
	</g>
</g>
</svg>
